<svg width="20" height="20" viewBox="0 0 20 20" fill="none" xmlns="http://www.w3.org/2000/svg">
<path d="M18.222 7.16003H16.888C16.903 7.07003 16.916 6.97803 16.916 6.88303V4.57003C16.916 3.59003 16.119 2.79303 15.138 2.79303H1.5V1.35803C1.5 0.944032 1.164 0.608032 0.75 0.608032C0.336 0.608032 0 0.944032 0 1.35803V18.83C0 19.245 0.336 19.58 0.75 19.58C1.164 19.58 1.5 19.245 1.5 18.83V17.396H12.056C13.036 17.396 13.834 16.599 13.834 15.619V13.306C13.834 13.211 13.82 13.119 13.806 13.028H18.223C19.203 13.028 20.001 12.23 20.001 11.25V8.94003C20.001 7.95703 19.204 7.16003 18.223 7.16003H18.222ZM15.14 4.29303C15.292 4.29303 15.417 4.41703 15.417 4.57003V6.88003C15.417 7.03403 15.292 7.16003 15.139 7.16003H1.5V4.29003H15.14V4.29303ZM12.333 13.307V15.619C12.333 15.772 12.208 15.896 12.055 15.896H1.5V13.028H12.056C12.209 13.028 12.333 13.154 12.333 13.308V13.307ZM18.5 11.25C18.5 11.403 18.375 11.527 18.222 11.527H1.5V8.66003H18.222C18.375 8.66003 18.5 8.78403 18.5 8.93703V11.25Z" fill="#1DA1F2"/>
</svg>
