<svg width="27" height="27" viewBox="0 0 27 27" fill="none" xmlns="http://www.w3.org/2000/svg">
<path d="M25.8563 19.0326C25.83 19.0116 23.0472 16.8856 23.0958 11.1383C23.122 7.82355 22.0299 4.87794 20.015 2.84481C18.2101 1.02115 15.7659 0.0130916 13.1341 0H13.117C10.4865 0.0130916 8.04231 1.02115 6.2361 2.84612C4.22249 4.87925 3.12774 7.82355 3.15662 11.1383C3.20519 16.807 0.505066 18.9501 0.397429 19.0326C0.0561398 19.2853 -0.0830013 19.7264 0.0495764 20.1297C0.183467 20.5329 0.56151 20.8039 0.984184 20.8039H7.44242C7.57631 23.828 10.0638 26.25 13.1262 26.25C16.1886 26.25 18.6735 23.828 18.806 20.8039H25.2669C25.6896 20.8039 26.0676 20.5342 26.1989 20.131C26.3341 19.7291 26.195 19.2866 25.8537 19.0339L25.8563 19.0326ZM13.1275 24.2823C11.152 24.2823 9.54398 22.7414 9.41534 20.8026H16.8397C16.7084 22.7401 15.1031 24.2849 13.1275 24.2849V24.2823ZM3.12512 18.8388C4.09648 17.3569 5.1571 14.8747 5.1256 11.12C5.10197 8.29223 5.97094 5.90694 7.6367 4.22466C9.07142 2.77542 11.0233 1.97291 13.1275 1.96374C15.2317 1.97422 17.1797 2.77542 18.6144 4.22597C20.2815 5.90825 21.1517 8.29223 21.1281 11.1213C21.0966 14.876 22.1586 17.3595 23.1299 18.8401H3.12512V18.8388Z" fill="black"/>
</svg>
