<svg width="23" height="23" viewBox="0 0 23 23" fill="none" xmlns="http://www.w3.org/2000/svg">
<path d="M22.0054 22.9993C21.7967 22.9993 21.5906 22.9422 21.4177 22.835L11.5013 16.6394L1.58492 22.8372C1.28177 23.0244 0.880217 23.0541 0.54515 22.9057C0.212741 22.7608 0 22.4663 0 22.1444V2.56816C0 1.15282 1.34293 0 2.99168 0H20.0083C21.6571 0 23 1.15282 23 2.56816V22.1433C23 22.4651 22.7899 22.7596 22.4549 22.9057C22.3139 22.9685 22.1583 22.9993 22.0028 22.9993H22.0054ZM11.5013 14.7241C11.7074 14.7241 11.9135 14.7789 12.0864 14.8885L21.0082 20.462V2.56816C21.0082 2.0979 20.5601 1.71211 20.011 1.71211H2.99168C2.44254 1.71211 1.99445 2.0979 1.99445 2.56816V20.462L10.9163 14.8885C11.0891 14.7789 11.2952 14.7241 11.5013 14.7241V14.7241Z" fill="black"/>
</svg>
