<svg width="17" height="17" viewBox="0 0 17 17" fill="none" xmlns="http://www.w3.org/2000/svg">
<path d="M9.77696 0.240157L6.41656 0.232056H6.41493C2.87144 0.232056 0.0959473 3.00836 0.0959473 6.55266C0.0959473 9.87256 2.67701 12.3904 6.14354 12.5233V15.6245C6.14354 15.712 6.17919 15.8562 6.24076 15.9509C6.3558 16.1332 6.55185 16.2321 6.75276 16.2321C6.86456 16.2321 6.97716 16.2013 7.07843 16.1365C7.2923 16.0004 12.3224 12.7825 13.6307 11.6759C15.1716 10.3716 16.0935 8.4597 16.0959 6.56238V6.54861C16.0911 3.01079 13.3172 0.240157 9.77696 0.239347V0.240157ZM12.8449 10.7491C11.9262 11.5268 8.90607 13.5076 7.35873 14.5105V11.9287C7.35873 11.5933 7.08734 11.3211 6.75114 11.3211H6.43033C3.46526 11.3211 1.31195 9.3152 1.31195 6.55266C1.31195 3.68968 3.55438 1.44725 6.41575 1.44725L9.77534 1.45535H9.77696C12.6383 1.45535 14.8808 3.69616 14.8824 6.5559C14.8799 8.10325 14.1192 9.67003 12.8457 10.7491H12.8449Z" fill="black" fill-opacity="0.57"/>
</svg>
