<svg width="23" height="23" viewBox="0 0 23 23" fill="none" xmlns="http://www.w3.org/2000/svg">
<path d="M22.1154 5.99924H17.48L17.9188 0.960227C17.9612 0.474255 17.6003 0.0460804 17.1144 0.0024373C16.6225 -0.032949 16.1991 0.320914 16.1566 0.808066L15.7049 5.99806H8.25051L8.68692 0.961406C8.73056 0.474255 8.36846 0.0460804 7.88487 0.0024373C7.38949 -0.032949 6.96841 0.320914 6.92595 0.808066L6.47538 5.99806H1.80697C1.31867 5.99806 0.922359 6.39556 0.922359 6.88272C0.922359 7.36987 1.31867 7.76737 1.80697 7.76737H6.32205L5.67333 15.2303H0.884615C0.396308 15.2303 0 15.6267 0 16.115C0 16.6033 0.396308 16.9997 0.884615 16.9997H5.52L5.08123 22.0387C5.03877 22.5246 5.39969 22.9528 5.88564 22.9965L5.96349 23C6.41759 23 6.80328 22.652 6.84338 22.1908L7.29513 17.0008H14.7495L14.3131 22.0375C14.2706 22.5246 14.6315 22.9528 15.1175 22.9965L15.1953 23C15.6494 23 16.0351 22.652 16.0752 22.1908L16.5258 17.0008H21.193C21.6802 17.0008 22.0776 16.6033 22.0776 16.1162C22.0776 15.629 21.6802 15.2315 21.193 15.2315H16.6779L17.3267 7.76855H22.1154C22.6037 7.76855 23 7.37223 23 6.8839C23 6.39556 22.6037 5.99924 22.1154 5.99924V5.99924ZM14.9028 15.2303H7.44846L8.09718 7.76855H15.5515L14.9028 15.2303Z" fill="black"/>
</svg>
