<svg width="27" height="27" viewBox="0 0 27 27" fill="none" xmlns="http://www.w3.org/2000/svg">
<path d="M25.2404 6.84696H19.95L20.4508 1.09591C20.4992 0.541269 20.0873 0.0525918 19.5327 0.0027817C18.9713 -0.0376049 18.4881 0.366261 18.4396 0.922249L17.924 6.84561H9.41635L9.91442 1.09726C9.96423 0.541269 9.55096 0.0525918 8.99904 0.0027817C8.43365 -0.0376049 7.95308 0.366261 7.90462 0.922249L7.39038 6.84561H2.06231C1.505 6.84561 1.05269 7.29929 1.05269 7.85527C1.05269 8.41126 1.505 8.86494 2.06231 8.86494H7.21538L6.475 17.3825H1.00962C0.452308 17.3825 0 17.8348 0 18.3921C0 18.9495 0.452308 19.4018 1.00962 19.4018H6.3L5.79923 25.1528C5.75077 25.7075 6.16269 26.1962 6.71731 26.246L6.80615 26.25C7.32442 26.25 7.76462 25.8529 7.81038 25.3265L8.32596 19.4031H16.8337L16.3356 25.1515C16.2871 25.7075 16.699 26.1962 17.2537 26.246L17.3425 26.25C17.8608 26.25 18.301 25.8529 18.3467 25.3265L18.861 19.4031H24.1877C24.7437 19.4031 25.1973 18.9495 25.1973 18.3935C25.1973 17.8375 24.7437 17.3838 24.1877 17.3838H19.0346L19.775 8.86628H25.2404C25.7977 8.86628 26.25 8.41395 26.25 7.85662C26.25 7.29929 25.7977 6.84696 25.2404 6.84696V6.84696ZM17.0087 17.3825H8.50096L9.24135 8.86628H17.749L17.0087 17.3825Z" fill="black"/>
</svg>
