<svg width="27" height="27" viewBox="0 0 27 27" fill="none" xmlns="http://www.w3.org/2000/svg">
<path d="M25.6325 7.22426L13.6853 0.155556C13.3341 -0.0518518 12.912 -0.0518518 12.5621 0.155556L0.620775 7.22426C0.0461749 7.56648 -0.167822 8.35204 0.141942 8.98204C0.354757 9.4163 0.762652 9.66259 1.18237 9.66259C1.37154 9.66259 1.56544 9.61333 1.74397 9.50704L2.61178 8.9937L4.49164 23.577C4.74702 25.1507 6.04046 26.25 7.63658 26.25H18.6107C20.2069 26.25 21.5003 25.1507 21.758 23.5433L23.6355 8.99241L24.5069 9.50833C25.0803 9.84926 25.798 9.61463 26.1077 8.98463C26.4187 8.35463 26.2023 7.56778 25.6301 7.22815L25.6325 7.22426ZM13.1237 17.7048C11.0014 17.7048 9.28116 15.8187 9.28116 13.4919C9.28116 11.165 11.0014 9.27889 13.1237 9.27889C15.2459 9.27889 16.9661 11.165 16.9661 13.4919C16.9661 15.8187 15.2459 17.7048 13.1237 17.7048Z" fill="black"/>
</svg>
