<svg width="23" height="23" viewBox="0 0 23 23" fill="none" xmlns="http://www.w3.org/2000/svg">
<path d="M22.4589 6.32983L11.9909 0.136296C11.6832 -0.0454321 11.3134 -0.0454321 11.0068 0.136296L0.543917 6.32983C0.040458 6.62968 -0.147044 7.31798 0.124368 7.86998C0.310834 8.25047 0.668228 8.46627 1.03598 8.46627C1.20173 8.46627 1.37162 8.42311 1.52805 8.32998L2.28841 7.8802L3.93554 20.658C4.15929 22.0368 5.2926 23 6.6911 23H16.3065C17.705 23 18.8383 22.0368 19.0642 20.6284L20.7092 7.87906L21.4727 8.33111C21.9751 8.62983 22.6039 8.42425 22.8753 7.87225C23.1478 7.32025 22.9582 6.63082 22.4568 6.33324L22.4589 6.32983ZM11.4988 15.5128C9.63934 15.5128 8.13207 13.8602 8.13207 11.8214C8.13207 9.78267 9.63934 8.13007 11.4988 8.13007C13.3583 8.13007 14.8656 9.78267 14.8656 11.8214C14.8656 13.8602 13.3583 15.5128 11.4988 15.5128Z" fill="#1DA1F2"/>
</svg>
