<svg width="23" height="23" viewBox="0 0 23 23" fill="none" xmlns="http://www.w3.org/2000/svg">
<path d="M20.4125 23H2.5875C1.1615 23 0 21.8385 0 20.4125V2.5875C0 1.1615 1.1615 0 2.5875 0H20.4125C21.8385 0 23 1.1615 23 2.5875V20.4125C23 21.8385 21.8385 23 20.4125 23ZM2.5875 1.725C2.1114 1.725 1.725 2.11255 1.725 2.5875V20.4125C1.725 20.8874 2.1114 21.275 2.5875 21.275H20.4125C20.8886 21.275 21.275 20.8874 21.275 20.4125V2.5875C21.275 2.11255 20.8886 1.725 20.4125 1.725H2.5875Z" fill="black"/>
<path d="M17.2501 7.63613H5.75007C5.27397 7.63613 4.88757 7.24858 4.88757 6.77363C4.88757 6.29868 5.27397 5.91113 5.75007 5.91113H17.2501C17.7262 5.91113 18.1126 6.29638 18.1126 6.77363C18.1126 7.25088 17.7262 7.63613 17.2501 7.63613ZM17.2501 12.3626H5.75007C5.27397 12.3626 4.88757 11.9762 4.88757 11.5001C4.88757 11.024 5.27397 10.6376 5.75007 10.6376H17.2501C17.7262 10.6376 18.1126 11.024 18.1126 11.5001C18.1126 11.9762 17.7262 12.3626 17.2501 12.3626ZM11.5001 17.0891H5.75007C5.27397 17.0891 4.88757 16.7039 4.88757 16.2266C4.88757 15.7494 5.27397 15.3641 5.75007 15.3641H11.5001C11.9762 15.3641 12.3626 15.7517 12.3626 16.2266C12.3626 16.7016 11.9762 17.0891 11.5001 17.0891Z" fill="black"/>
</svg>
