<svg width="17" height="15" viewBox="0 0 17 15" fill="none" xmlns="http://www.w3.org/2000/svg">
<path d="M8.95075 14.724H8.9396C6.88328 14.6885 0.949951 9.70401 0.949951 4.98307C0.949951 2.71512 2.9601 0.723999 5.25127 0.723999C7.07434 0.723999 8.30033 1.8935 8.94995 2.74472C9.59798 1.89498 10.824 0.723999 12.6478 0.723999C14.9406 0.723999 16.95 2.71512 16.95 4.98381C16.95 9.70327 11.0158 14.6877 8.9595 14.7225H8.95075V14.724ZM5.25207 1.83503C3.59618 1.83503 2.1449 3.30653 2.1449 4.98455C2.1449 9.23325 7.74466 13.5678 8.95154 13.6137C10.16 13.5678 15.7582 9.23399 15.7582 4.98455C15.7582 3.30653 14.3069 1.83503 12.651 1.83503C10.6385 1.83503 9.51439 4.00823 9.50483 4.0297C9.32173 4.44569 8.58454 4.44569 8.40064 4.0297C8.3895 4.00749 7.2662 1.83503 5.25287 1.83503H5.25207Z" fill="black" fill-opacity="0.57"/>
</svg>
