<svg width="23" height="23" viewBox="0 0 23 23" fill="none" xmlns="http://www.w3.org/2000/svg">
<path d="M19.8375 0H3.1625C1.41795 0 0 1.57678 0 3.51644V19.4823C0 21.4219 1.41795 23 3.1625 23H19.8375C21.582 23 23 21.4219 23 19.4823V3.51644C23 1.57678 21.582 0 19.8375 0ZM3.1625 1.91667H19.8375C20.631 1.91667 21.275 2.63222 21.275 3.51389V4.42622L12.0175 11.2841C11.7035 11.5141 11.2976 11.5166 10.9825 11.2815L1.725 4.42622V3.51389C1.725 2.63222 2.369 1.91667 3.1625 1.91667V1.91667ZM19.8375 21.0808H3.1625C2.369 21.0808 1.725 20.3652 1.725 19.4836V6.67256L10.051 12.8442C10.4914 13.1713 10.9963 13.3349 11.5 13.3349C12.006 13.3349 12.5086 13.1713 12.949 12.8455L21.275 6.67383V19.4797C21.275 20.3614 20.631 21.0769 19.8375 21.0769V21.0808Z" fill="black"/>
</svg>
