<svg width="23" height="23" viewBox="0 0 23 23" fill="none" xmlns="http://www.w3.org/2000/svg">
<path d="M16.3137 9.62781C15.2814 9.62781 14.4416 10.4697 14.4416 11.4999C14.4416 12.5301 15.2803 13.372 16.3137 13.372C17.345 13.372 18.1858 12.5312 18.1858 11.4999C18.1858 10.4686 17.345 9.62781 16.3137 9.62781ZM16.3137 12.3022C15.8708 12.3022 15.5114 11.9428 15.5114 11.4999C15.5114 11.0581 15.8719 10.6976 16.3137 10.6976C16.7555 10.6976 17.116 11.057 17.116 11.4999C17.116 11.9417 16.7566 12.3022 16.3137 12.3022ZM11.4998 9.62781C10.4664 9.62781 9.62767 10.4697 9.62767 11.4999C9.62767 12.5301 10.4674 13.372 11.4998 13.372C12.5321 13.372 13.3719 12.5312 13.3719 11.4999C13.3719 10.4686 12.5332 9.62781 11.4998 9.62781ZM11.4998 12.3022C11.0569 12.3022 10.6974 11.9428 10.6974 11.4999C10.6974 11.0581 11.058 10.6976 11.4998 10.6976C11.9416 10.6976 12.3021 11.057 12.3021 11.4999C12.3021 11.9417 11.9427 12.3022 11.4998 12.3022ZM6.68581 9.62781C5.65349 9.62781 4.81372 10.4697 4.81372 11.4999C4.81372 12.5301 5.65349 13.372 6.68581 13.372C7.71707 13.372 8.55791 12.5312 8.55791 11.4999C8.55791 10.4686 7.716 9.62781 6.68581 9.62781ZM6.68581 12.3022C6.24293 12.3022 5.88349 11.9428 5.88349 11.4999C5.88349 11.0581 6.244 10.6976 6.68581 10.6976C7.12763 10.6976 7.48814 11.057 7.48814 11.4999C7.48814 11.9417 7.1287 12.3022 6.68581 12.3022Z" fill="black"/>
<path d="M11.5 23C5.15842 23 0 17.8416 0 11.5C0 5.15842 5.15842 0 11.5 0C17.8416 0 23 5.15842 23 11.5C23 17.8416 17.8416 23 11.5 23ZM11.5 1.60465C6.04419 1.60465 1.60465 6.04419 1.60465 11.5C1.60465 16.9558 6.04419 21.3953 11.5 21.3953C16.9558 21.3953 21.3953 16.9558 21.3953 11.5C21.3953 6.04419 16.9558 1.60465 11.5 1.60465Z" fill="black"/>
</svg>
