<svg width="23" height="23" viewBox="0 0 23 23" fill="none" xmlns="http://www.w3.org/2000/svg">
<path d="M11.5001 11.4887C13.3661 11.4887 15.4552 11.3191 16.7882 10.0684C17.9092 9.01681 18.2727 7.39076 17.8982 5.10206C17.3749 1.90762 14.9828 0 11.5001 0C8.01746 0 5.62543 1.90762 5.10213 5.10433C4.72756 7.39076 5.09112 9.01681 6.21208 10.0684C7.54511 11.3202 9.63417 11.4887 11.5001 11.4887V11.4887ZM7.14851 5.32822C7.3716 3.97129 8.23228 1.69617 11.5001 1.69617C14.768 1.69617 15.6287 3.97242 15.8518 5.32822C16.1368 7.08092 15.9303 8.29877 15.2321 8.95236C14.6055 9.54036 13.4887 9.79253 11.5001 9.79253C9.51161 9.79253 8.39478 9.54036 7.7682 8.95236C7.07001 8.29877 6.86345 7.07979 7.14851 5.32822ZM22.9025 19.8791C21.6948 15.8919 17.0058 13.1057 11.5001 13.1057C5.99449 13.1057 1.30546 15.8919 0.0977459 19.8791C-0.139116 20.6616 0.0591867 21.4621 0.641701 22.0728C1.20356 22.6608 2.07389 23 3.02822 23H19.9721C20.9264 23 21.7967 22.6608 22.3586 22.0728C22.9425 21.4621 23.1394 20.6627 22.9012 19.8791H22.9025ZM20.7322 21.0279C20.5587 21.2088 20.2971 21.3061 19.9721 21.3061H3.02822C2.7046 21.3061 2.44157 21.21 2.26806 21.0279C2.07939 20.8312 2.02018 20.562 2.10281 20.2884C3.08055 17.06 6.94607 14.8041 11.5001 14.8041C16.0542 14.8041 19.9197 17.0589 20.8975 20.2884C20.9801 20.562 20.9209 20.8312 20.7322 21.0279V21.0279Z" fill="black"/>
</svg>
