<svg width="17" height="14" viewBox="0 0 17 14" fill="none" xmlns="http://www.w3.org/2000/svg">
<path d="M15.8643 10.1449C15.6695 9.91476 15.3526 9.91476 15.1571 10.1449L13.6758 11.8887V3.8454C13.6758 2.22104 12.5528 0.899868 11.1736 0.899868H7.27016C6.99392 0.899868 6.76972 1.16379 6.76972 1.48897C6.76972 1.81416 6.99392 2.07808 7.27016 2.07808H11.1736C12.001 2.07808 12.6749 2.87141 12.6749 3.8454V11.8887L11.1936 10.1449C10.9981 9.91476 10.6811 9.91476 10.4863 10.1449C10.2915 10.375 10.2901 10.7481 10.4863 10.9775L12.8217 13.7267C12.9184 13.8421 13.0465 13.8995 13.1753 13.8995C13.3041 13.8995 13.4309 13.8429 13.529 13.7267L15.8643 10.9775C16.0605 10.7481 16.0605 10.375 15.8643 10.1449V10.1449ZM8.75145 12.7213H4.84804C4.02065 12.7213 3.34673 11.9279 3.34673 10.9539V2.91068L4.82802 4.65444C4.92678 4.7699 5.05489 4.82724 5.183 4.82724C5.31111 4.82724 5.43922 4.7699 5.53664 4.65444C5.73215 4.42429 5.73215 4.05119 5.53664 3.82183L3.20127 1.07267C3.00576 0.841743 2.68882 0.841743 2.49398 1.07267L0.158603 3.82183C-0.0375683 4.05119 -0.0375683 4.42429 0.158603 4.65444C0.354775 4.88458 0.670385 4.88458 0.865889 4.65444L2.34719 2.91068V10.9539C2.34719 12.5783 3.47017 13.8995 4.84937 13.8995H8.75279C9.02903 13.8995 9.25323 13.6356 9.25323 13.3104C9.25323 12.9852 9.02836 12.7213 8.75279 12.7213H8.75145Z" fill="black" fill-opacity="0.57"/>
</svg>
