<svg width="17" height="17" viewBox="0 0 17 17" fill="none" xmlns="http://www.w3.org/2000/svg">
<path d="M13.1817 10.3586C12.2874 10.3586 11.4971 10.7785 10.9699 11.4209L5.70086 8.73473C5.75366 8.51876 5.78885 8.29478 5.78885 8.0612C5.78885 7.83162 5.75526 7.61165 5.70406 7.39727L10.9635 4.74153C11.4899 5.38947 12.2834 5.81343 13.1825 5.81343C14.7648 5.81343 16.051 4.52875 16.051 2.94971C16.051 1.37067 14.7648 0.0859985 13.1825 0.0859985C11.6003 0.0859985 10.314 1.37067 10.314 2.94971C10.314 3.20089 10.3572 3.44086 10.418 3.67284L5.18011 6.31738C4.65537 5.64064 3.84265 5.19749 2.92114 5.19749C1.3373 5.19749 0.0510254 6.48216 0.0510254 8.0612C0.0510254 9.64024 1.3389 10.9249 2.92034 10.9249C3.83705 10.9249 4.64657 10.485 5.17211 9.81303L10.4196 12.4872C10.3556 12.7223 10.3116 12.9655 10.3116 13.2215C10.3116 14.8005 11.5979 16.0852 13.1801 16.0852C14.7624 16.0852 16.0486 14.8005 16.0486 13.2215C16.0486 11.6424 14.7608 10.3578 13.1801 10.3578L13.1817 10.3586ZM13.1817 1.28748C14.1016 1.28748 14.8503 2.033 14.8503 2.94971C14.8503 3.86642 14.1016 4.61355 13.1817 4.61355C12.2618 4.61355 11.5131 3.86642 11.5131 2.94971C11.5131 2.033 12.261 1.28588 13.1817 1.28588V1.28748ZM2.92194 9.72344C2.00203 9.72344 1.25171 8.97711 1.25171 8.0596C1.25171 7.14209 2.00123 6.39577 2.92114 6.39577C3.84105 6.39577 4.58897 7.14369 4.58897 8.0596C4.58897 8.97551 3.84025 9.72344 2.92034 9.72344H2.92194ZM13.1817 14.8845C12.2618 14.8845 11.5131 14.1382 11.5131 13.2207C11.5131 12.3032 12.2618 11.5569 13.1817 11.5569C14.1016 11.5569 14.8503 12.3048 14.8503 13.2207C14.8503 14.1366 14.1016 14.8845 13.1817 14.8845Z" fill="black" fill-opacity="0.57"/>
</svg>
