<svg width="22" height="22" viewBox="0 0 22 22" fill="none" xmlns="http://www.w3.org/2000/svg">
<path d="M10.75 21.5C4.822 21.5 0 16.678 0 10.75C0 4.822 4.822 0 10.75 0C16.678 0 21.5 4.822 21.5 10.75C21.5 16.678 16.678 21.5 10.75 21.5ZM10.75 1.5C5.65 1.5 1.5 5.65 1.5 10.75C1.5 15.85 5.65 20 10.75 20C15.85 20 20 15.85 20 10.75C20 5.65 15.85 1.5 10.75 1.5Z" fill="#1DA1F2"/>
<path d="M10.75 15.8651C8.85801 15.8651 7.11701 14.9151 6.09401 13.3211C5.87001 12.9731 5.97101 12.5111 6.32001 12.2861C6.66801 12.0601 7.13201 12.1621 7.35601 12.5121C8.10301 13.6741 9.37201 14.3671 10.751 14.3671C12.13 14.3671 13.399 13.6741 14.147 12.5131C14.371 12.1631 14.835 12.0631 15.183 12.2881C15.533 12.5121 15.633 12.9761 15.409 13.3241C14.384 14.9181 12.643 15.8691 10.751 15.8691L10.75 15.8651Z" fill="#1DA1F2"/>
<path d="M13.488 9.68598C14.3043 9.68598 14.966 9.02426 14.966 8.20798C14.966 7.3917 14.3043 6.72998 13.488 6.72998C12.6717 6.72998 12.01 7.3917 12.01 8.20798C12.01 9.02426 12.6717 9.68598 13.488 9.68598Z" fill="#1DA1F2"/>
<path d="M8.01206 9.68598C8.82833 9.68598 9.49006 9.02426 9.49006 8.20798C9.49006 7.3917 8.82833 6.72998 8.01206 6.72998C7.19578 6.72998 6.53406 7.3917 6.53406 8.20798C6.53406 9.02426 7.19578 9.68598 8.01206 9.68598Z" fill="#1DA1F2"/>
</svg>
