<svg width="24" height="23" viewBox="0 0 24 23" fill="none" xmlns="http://www.w3.org/2000/svg">
<path d="M22.77 9.97839L17.1525 7.67392L14.9927 0.840421C14.8907 0.51767 14.6028 0.300049 14.2808 0.300049C13.9588 0.300049 13.6709 0.51767 13.5689 0.83937L11.4091 7.67287L5.78955 9.97734C5.50258 10.0951 5.31259 10.3874 5.31259 10.7133C5.31259 11.0392 5.50258 11.3283 5.79055 11.4471L11.4101 13.7515L13.5699 20.585C13.6719 20.9067 13.9598 21.1244 14.2818 21.1244C14.6038 21.1244 14.8917 20.9067 14.9937 20.585L17.1535 13.7515L22.773 11.4471C23.06 11.3293 23.25 11.0371 23.25 10.7112C23.25 10.3852 23.06 10.0961 22.772 9.97839H22.77ZM16.2806 12.4174C16.0726 12.5015 15.9107 12.6803 15.8407 12.901L14.2808 17.8369L12.7209 12.9031C12.6509 12.6824 12.491 12.5036 12.283 12.4174L8.12834 10.7143L12.282 9.00909C12.49 8.92498 12.6519 8.74626 12.7219 8.52338L14.2818 3.58959L15.8417 8.52443C15.9117 8.74731 16.0716 8.92603 16.2796 9.01119L20.4343 10.7143L16.2796 12.4195L16.2806 12.4174ZM6.66247 2.94094H4.78264V1.08853C4.78264 0.653288 4.44567 0.300049 4.03271 0.300049C3.61974 0.300049 3.28277 0.653288 3.28277 1.08853V2.94094H1.49993C1.08597 2.94094 0.75 3.29417 0.75 3.72942C0.75 4.16466 1.08597 4.5179 1.49993 4.5179H3.28177V6.3703C3.28177 6.80554 3.61775 7.15878 4.03171 7.15878C4.44567 7.15878 4.78164 6.80554 4.78164 6.3703V4.5179H6.66147C7.07644 4.5179 7.41141 4.16466 7.41141 3.72942C7.41141 3.29417 7.07644 2.94094 6.66147 2.94094H6.66247ZM9.19725 19.3645H8.09735V18.2963C8.09735 17.8611 7.76238 17.5079 7.34741 17.5079C6.93245 17.5079 6.59748 17.8611 6.59748 18.2963V19.3645H5.56957C5.15561 19.3645 4.81964 19.7177 4.81964 20.153C4.81964 20.5882 5.15561 20.9414 5.56957 20.9414H6.59948V22.0096C6.59948 22.4448 6.93445 22.798 7.34941 22.798C7.76438 22.798 8.09935 22.4448 8.09935 22.0096V20.9414H9.19725C9.61121 20.9414 9.94718 20.5882 9.94718 20.153C9.94718 19.7177 9.61121 19.3645 9.19725 19.3645V19.3645Z" fill="#1DA1F2"/>
</svg>
